<svg id="Layer_1" data-name="Layer 1" xmlns="http://www.w3.org/2000/svg" viewBox="0 0 276.42 157.67"><defs><style>.cls-1{fill:#707070;}</style></defs><path class="cls-1" d="M70.88,65.53a39.26,39.26,0,0,0-7.56-2.79A44.8,44.8,0,0,0,20.68,74.36a44.33,44.33,0,1,0,74.13,43h7.9A52,52,0,1,1,52.05,53.68,50.67,50.67,0,0,1,65.3,55.42,49.64,49.64,0,0,1,76,59.49Zm153.48,52.29a12.54,12.54,0,0,1-8.6-3.49,12.25,12.25,0,0,1-3.48-8.6,12.05,12.05,0,0,1,3.48-8.6,24.16,24.16,0,0,1,1.86-1.62L206,52.75,136.76,99.92a16.45,16.45,0,0,1-1.28,14.18l8.83,6.85,5.81-1.51a1.93,1.93,0,0,1,2.32,1.28,2.08,2.08,0,0,1-1.39,2.44l-13.25,3.49a1.83,1.83,0,0,1-2.32-1.28,1.91,1.91,0,0,1,1.28-2.44l2.9-.7-6.51-5.11a.24.24,0,0,1-.23.23,16.14,16.14,0,0,1-11.62,4.88,16.39,16.39,0,0,1-11.73-4.88,17.58,17.58,0,0,1-4.42-7.67H63.56a13.07,13.07,0,0,1-2.91,4.65,12.34,12.34,0,0,1-17.2,0,12.36,12.36,0,0,1-3.6-8.6,12.29,12.29,0,0,1,12.2-12.2,14.07,14.07,0,0,1,4.53.82L100.16,43,97,31.6l-8.25.7c-.58,0-1,.12-1.51.12A17.45,17.45,0,0,1,75.76,28a15.78,15.78,0,0,1-5.35-10.57,3.82,3.82,0,0,1-.12-1.16A5.19,5.19,0,0,1,72,12.43a5.39,5.39,0,0,1,3.48-1.28h35.79c4,0,7.67.7,10.34,2.33A9.42,9.42,0,0,1,126.3,22,7.94,7.94,0,0,1,125,26.72c-1,1.63-2.79,2.68-5.58,2.91L104.8,30.91l2.44,8.71L199,27.3,193.69,7.78h-9.3a3.89,3.89,0,0,1,0-7.78h31.49a17.26,17.26,0,0,1,12.2,5.11,16.64,16.64,0,0,1,5,12.09,17.06,17.06,0,0,1-17.2,17.19,3.84,3.84,0,0,1,0-7.67,9.51,9.51,0,0,0,9.53-9.52,9.59,9.59,0,0,0-2.79-6.74,9.78,9.78,0,0,0-6.74-2.68H201.59l5.93,21.62c0,.11.11.23.11.34l4.18,15.57c.12.12.12.35.24.47l13,47.75a11.45,11.45,0,0,1,7.9,3.6,12.12,12.12,0,0,1,3.6,8.6,12.31,12.31,0,0,1-3.6,8.6,12.54,12.54,0,0,1-8.6,3.49Zm-162-18.48a13.59,13.59,0,0,1,1.28,2.56h41.48a15.75,15.75,0,0,1,4.42-7.9,12.45,12.45,0,0,1,3.72-2.79L102.6,51.94ZM225.06,64.6a41.08,41.08,0,1,1-41.83,41.13,40.53,40.53,0,0,1,5.81-21,41.07,41.07,0,0,1,13.83-14.06l1,3.84a38.93,38.93,0,0,0-11.62,12.2,37.67,37.67,0,0,0-5.11,19,37.19,37.19,0,1,0,39-37.29ZM120.72,89.12h.58a16.59,16.59,0,0,1,11.16,4.41L203.8,44.85l-2.79-10L109.22,47.17Zm81.33-21.73a43.66,43.66,0,0,0-15.33,14.87,44.33,44.33,0,1,0,37.64-20.91h-.11l-2.09-7.67h2.2A52.51,52.51,0,1,1,200,59.84ZM86.33,83.08a40,40,0,0,1,4.76,9.76,6.33,6.33,0,0,1,.47,1.39H87.49V94a37.84,37.84,0,0,0-3.72-7.9Zm5.11,34.27A40.41,40.41,0,0,1,81.1,134.78a41.12,41.12,0,1,1-29-70.18,44.44,44.44,0,0,1,9.65,1.05,38.76,38.76,0,0,1,7.08,2.44l-2.55,3a41.34,41.34,0,0,0-5.46-1.74,42.06,42.06,0,0,0-8.72-.93A37.22,37.22,0,0,0,25.68,132a36.63,36.63,0,0,0,26.37,10.92A36.65,36.65,0,0,0,78.43,132a37.5,37.5,0,0,0,9.06-14.64Zm3.49-23.12c-.35-1.16-.7-2.21-1.05-3.37a46,46,0,0,0-5.34-10.34l5.11-6a51.37,51.37,0,0,1,7.44,13.82,60.34,60.34,0,0,1,1.74,5.93Z"/></svg>