<svg id="Layer_1" data-name="Layer 1" xmlns="http://www.w3.org/2000/svg" viewBox="0 0 316.28 316.28">
	<defs>
	<style>.cls-1{fill:#022d04;}</style>
	</defs>
	<path class="cls-1" d="M158.14,316.28c6.81,0,14.38-7.86,7.24-25.84s3-22.61,3-22.61v-4a105.84,105.84,0,0,0,57.33-23.75l2.84,2.83s10.41-3.87,18.07,13.9,18.58,18,23.39,13.15,4.61-15.73-13.15-23.39-13.9-18.07-13.9-18.07l-2.83-2.84a105.84,105.84,0,0,0,23.75-57.33h4s4.63-10.1,22.61-3,25.84-.43,25.84-7.24-7.86-14.38-25.84-7.23-22.61-3-22.61-3h-4a105.84,105.84,0,0,0-23.75-57.33l2.83-2.84S239,77.37,256.81,69.71s18-18.57,13.15-23.39-15.73-4.61-23.39,13.16S228.5,73.37,228.5,73.37l-2.84,2.83a105.84,105.84,0,0,0-57.33-23.75v-4s-10.1-4.63-3-22.61S165,0,158.14,0s-14.38,7.86-7.23,25.84-3,22.61-3,22.61v4A105.84,105.84,0,0,0,90.62,76.2l-2.84-2.83S77.37,77.24,69.71,59.48s-18.57-18-23.39-13.16S41.71,62.05,59.48,69.71,73.37,87.78,73.37,87.78l2.83,2.84A105.84,105.84,0,0,0,52.45,148h-4s-4.63,10.1-22.61,3S0,151.33,0,158.14s7.86,14.38,25.84,7.24,22.61,3,22.61,3h4A105.84,105.84,0,0,0,76.2,225.66l-2.83,2.84s3.87,10.41-13.89,18.07S41.5,265.15,46.32,270s15.73,4.61,23.39-13.15,18.07-13.9,18.07-13.9l2.84-2.83A105.84,105.84,0,0,0,148,263.83v4s10.1,4.63,3,22.61S151.33,316.28,158.14,316.28Zm-41.6-102.12-1.07-1.66a6.31,6.31,0,0,1,.83-7.91l18-18c1.33-1.2,3.78-2.93,6.45-2.58,2.06.27,2.5-1.27,2.44-2.83a27.36,27.36,0,0,0,9.21,3.82c-1.14,1.06-1.92,2.46-.27,3.72,2.13,1.65,2.64,4.6,2.74,6.39v1.5h0v24a6.33,6.33,0,0,1-5,6.19l-1.93.41v6.89a75.78,75.78,0,0,1-36.29-15Zm24.22-81.89c-2.67.35-5.12-1.38-6.45-2.57l-18-18a6.31,6.31,0,0,1-.83-7.91l1.07-1.66-4.88-4.87a75.78,75.78,0,0,1,36.29-15v6.89l1.93.41a6.34,6.34,0,0,1,5,6.19v24h0v1.5c-.1,1.79-.61,4.75-2.74,6.39-1.65,1.27-.87,2.66.27,3.72a27.36,27.36,0,0,0-9.21,3.82C143.26,133.54,142.82,132,140.76,132.27Zm59-30.15,1.08,1.66a6.33,6.33,0,0,1-.84,7.91L183,128.63h0L182,129.7c-1.34,1.19-3.79,2.92-6.46,2.57-2.06-.27-2.5,1.27-2.44,2.83a27.31,27.31,0,0,0-9.2-3.82c1.14-1.06,1.91-2.45.26-3.72-2.13-1.64-2.64-4.6-2.74-6.39V95.71a6.34,6.34,0,0,1,5-6.19l1.92-.41V82.22a75.74,75.74,0,0,1,36.29,15ZM175.52,184c2.67-.35,5.12,1.38,6.46,2.58l1.06,1.06h0L200,204.59a6.33,6.33,0,0,1,.84,7.91l-1.08,1.66,4.88,4.87a75.74,75.74,0,0,1-36.29,15v-6.89l-1.92-.41a6.33,6.33,0,0,1-5-6.19V195.11c.1-1.79.61-4.74,2.74-6.39,1.65-1.26.88-2.66-.26-3.72a27.31,27.31,0,0,0,9.2-3.82C173,182.74,173.46,184.28,175.52,184ZM219,204.62l-4.87-4.88-1.66,1.08a6.33,6.33,0,0,1-7.91-.84l-18-18c-1.2-1.34-2.93-3.79-2.58-6.46.27-2.06-1.27-2.5-2.83-2.44a27.31,27.31,0,0,0,3.82-9.2c1.06,1.14,2.46,1.91,3.72.26,1.65-2.13,4.6-2.64,6.39-2.74h25.46a6.33,6.33,0,0,1,6.19,5l.41,1.92h6.89A75.74,75.74,0,0,1,219,204.62Zm15-56.67h-6.89l-.41,1.93a6.33,6.33,0,0,1-6.19,5H195.11c-1.79-.1-4.74-.61-6.39-2.74-1.26-1.65-2.66-.87-3.72.27a27.36,27.36,0,0,0-3.82-9.21c1.56.06,3.1-.38,2.83-2.44-.35-2.67,1.38-5.12,2.58-6.45l18-18a6.31,6.31,0,0,1,7.91-.83l1.66,1.07,4.87-4.88A75.78,75.78,0,0,1,234.06,148ZM97.25,111.66l4.87,4.88,1.66-1.07a6.31,6.31,0,0,1,7.91.83l16.94,16.94h0l1.07,1.07c1.19,1.33,2.92,3.78,2.57,6.45-.27,2.06,1.27,2.5,2.83,2.44a27.36,27.36,0,0,0-3.82,9.21c-1.06-1.14-2.45-1.92-3.72-.27-1.64,2.13-4.6,2.64-6.39,2.74H95.71a6.34,6.34,0,0,1-6.19-5L89.11,148H82.22A75.78,75.78,0,0,1,97.25,111.66Zm-15,56.67h6.89l.41-1.92a6.34,6.34,0,0,1,6.19-5h25.46c1.79.1,4.75.61,6.39,2.74,1.27,1.65,2.66.88,3.72-.26a27.31,27.31,0,0,0,3.82,9.2c-1.56-.06-3.1.38-2.83,2.44.35,2.67-1.38,5.12-2.57,6.46L128.63,183h0L111.69,200a6.33,6.33,0,0,1-7.91.84l-1.66-1.08-4.87,4.88A75.74,75.74,0,0,1,82.22,168.33Z"/></svg>