<svg id="Layer_1" data-name="Layer 1" xmlns="http://www.w3.org/2000/svg" viewBox="0 0 508 172.4"><defs><style>.cls-1,.cls-2{fill:#fff;}.cls-2{fill-rule:evenodd;}</style></defs><path class="cls-1" d="M408.29,102.11a2.34,2.34,0,0,0,1.93,2.16c2,.48,3.2,1.32,3,2.22L412,108.38a2.86,2.86,0,0,1-1.87.68H394.46a2.87,2.87,0,0,1-1.88-.68l-.44-.4a2.07,2.07,0,0,1-.73-1.55V74.36a2.28,2.28,0,0,0-1.84-2.14,2.35,2.35,0,0,1-2.12-2.38l.27-.94a1.15,1.15,0,0,1,.37-.56l1-.81a1.39,1.39,0,0,1,.9-.33h15.2a2.82,2.82,0,0,1,1.84.66l.49.42a2.1,2.1,0,0,1,.77,1.59Z"/><path class="cls-2" d="M403,121.21l-7.45.25A15.15,15.15,0,0,1,394,125a17.69,17.69,0,0,1-2.46,3.3,25.63,25.63,0,0,1-3.26,2.88,37.48,37.48,0,0,1-3.61,2.38q-1.86,1.11-3.87,2.1c-1.33.65-2.71,1.27-4.26,1.88s-3.3,1.24-5.07,1.81a86.43,86.43,0,0,1-11,2.72q-7.65,1.36-15.49,2c-5.21.45-10.47.66-15.72.62s-10.5-.33-15.16-.72-8.75-.9-12.81-1.47-8.09-1.21-12-1.88-7.77-1.4-11.6-2.14S270,137,265.14,136s-10.82-2.27-16.76-3.54l-15.85-3.4c-4-.85-6-1.27-8-1.67s-4.08-.79-8.54-1.56S204.6,124,197.64,123s-14-1.56-21-2-14.12-.64-19.46-.7-8.93.05-12.52.24-7.17.46-11.61.94-9.77,1.19-15,2.08-10.44,2-15.55,3.19-10.13,2.63-15.6,4.37-11.38,3.8-17.18,6-11.49,4.57-17.05,7.06-11,5.13-16.27,7.9L91.18,172.4c2.53-1.84,5.19-3.6,7.94-5.28s5.62-3.27,8.58-4.77,6-2.91,9.21-4.26,6.57-2.65,10-3.86,6.91-2.32,9.81-3.18,5.22-1.45,7.57-2,4.72-1,7.11-1.44,4.81-.76,7.76-1.11,6.43-.69,9.92-1,7-.5,10.21-.63,6.15-.17,9.08-.14,5.87.14,10.9.52,12.16,1.05,19.24,1.88,14.14,1.79,19.88,2.58,10.15,1.38,14.57,2,8.83,1.19,14.07,1.87,11.27,1.45,17.35,2.06a286.43,286.43,0,0,0,30.22,1.58c4,0,7.93-.24,11.89-.44a174.41,174.41,0,0,0,27.27-4,129,129,0,0,0,13.16-3.68,89.71,89.71,0,0,0,12.88-5.47,65.57,65.57,0,0,0,11.11-7.33C394.22,133.61,403,122.31,403,121.21Z"/><path class="cls-2" d="M416.64,24a7,7,0,0,0-5.63-.62,5.59,5.59,0,0,1-3.36-.24c-1.87-.76-4-1.46-5.74-.11a2.66,2.66,0,0,0-1.22,1.81c-.05,1-.07,2-.09,3l16.6-3.4a4,4,0,0,0-.56-.43Z"/><path class="cls-2" d="M397.27,29a1.4,1.4,0,0,0,.75.71,2,2,0,0,0,2.17-.3,1.2,1.2,0,0,0,.39-.88c0-.23,0-.46,0-.69l-3.43.7a1.09,1.09,0,0,0,.1.46Z"/><path class="cls-2" d="M390.3,39.37a3.5,3.5,0,0,0-1.1.74c-1.08,1.39-1.14,2.62.25,3.8,1,.86,2,1.11,2.91,1.84a2.75,2.75,0,0,1,1.1,1.6,4.71,4.71,0,0,0,2.14,2.93,6.25,6.25,0,0,0,3.66.88c.26,0,.51,0,.77-.09l-6.16-13.43-3.57,1.73Z"/><path class="cls-2" d="M405.54,35.32a2.05,2.05,0,0,0-.55-.16,1.9,1.9,0,0,0-1.62.46,1.12,1.12,0,0,0,0,1.74,1.83,1.83,0,0,0,.46.3l.76.36.94-2.69h0Z"/><path class="cls-2" d="M403.13,49.45a4.65,4.65,0,0,0,.73-1c.54-.94.37-1.89,1.51-2.7a26.1,26.1,0,0,1,2.36-1.43c2-1.35,1.78-2.68,1.07-3.87a2.94,2.94,0,0,0-1-.88c-1.08-.54-2.16-1-3.23-1.55l-4.57,13a5.44,5.44,0,0,0,3.1-1.61Z"/><path class="cls-2" d="M405.54,35.32h0l3.69,1.57a4.68,4.68,0,0,0,4.22-.22A3.13,3.13,0,0,0,414.9,34c.14-1.11.08-2.29,1.52-3.28a5.32,5.32,0,0,0,1-.83c1.57-1.78,1.54-3.46.28-5a4.45,4.45,0,0,0-.49-.48L405.54,35.32Z"/><path class="cls-2" d="M397.06,25.2a2.31,2.31,0,0,0-.84-1.84,4,4,0,0,0-3.72-1c-1.83.37-3.92,1.68-5.78,1a7.05,7.05,0,0,0-5.63.62,4.54,4.54,0,0,0-1.44,1.44,3.49,3.49,0,0,0-.29.58l17.81,2.51-.11-3.31Z"/><path class="cls-2" d="M394.34,37.34a1.12,1.12,0,0,0,0-1.74,2,2,0,0,0-2.17-.29l-.78.34,2.49,2a1.83,1.83,0,0,0,.46-.3Z"/><path class="cls-2" d="M381.31,30.75a3.1,3.1,0,0,1,.95,1c1,1.7-.07,3.47,2,4.95a4.59,4.59,0,0,0,3.79.39c1.11-.45,2.22-.94,3.32-1.42l-12-9.65a3,3,0,0,0-.18,1.83,4.64,4.64,0,0,0,2.13,2.92Z"/><path class="cls-2" d="M463.38,92.86a15.73,15.73,0,0,0,2.93,6.52,22,22,0,0,0,2.37,2.85,19.32,19.32,0,0,0,3.16,2.73,21.2,21.2,0,0,0,3.77,2.08,23.74,23.74,0,0,0,4.21,1.34,30,30,0,0,0,4.45.61,34.29,34.29,0,0,0,8.78-.57,21.61,21.61,0,0,0,3.26-.93,23.7,23.7,0,0,0,2.87-1.25,22.34,22.34,0,0,0,2.63-1.58,21,21,0,0,0,4.35-4,19,19,0,0,0,1.64-2.38,1.29,1.29,0,0,0-.51-1.84,1.81,1.81,0,0,0-2.18.22A17.35,17.35,0,0,1,502.16,99a19.36,19.36,0,0,1-3.46,1.75,18.92,18.92,0,0,1-7.07,1.36,17.63,17.63,0,0,1-6.36-1.27A12.71,12.71,0,0,1,482.39,99a10.78,10.78,0,0,1-2.13-2.47,9.68,9.68,0,0,1-1.22-2.9,48.37,48.37,0,0,0,7.61-1.44,29.88,29.88,0,0,0,11.22-5.38,24.53,24.53,0,0,0,2.81-2.65,10.28,10.28,0,0,0,1.45-2,12.31,12.31,0,0,0,1.06-4,8.39,8.39,0,0,0-.81-5.12,9.36,9.36,0,0,0-1.95-2.52,13.17,13.17,0,0,0-2.65-2,15,15,0,0,0-3.15-1.35,27.19,27.19,0,0,0-15.89.36,29.72,29.72,0,0,0-4.37,1.85,23.21,23.21,0,0,0-3.64,2.35,19.86,19.86,0,0,0-5.17,6.09,20.84,20.84,0,0,0-1.43,3.2C463.36,83.12,463.05,91.08,463.38,92.86Zm15.27-11.44a17.13,17.13,0,0,1,1.62-3.34,8,8,0,0,1,1.3-1.78,9.72,9.72,0,0,1,1.8-1.42,10.11,10.11,0,0,1,2.17-1,10.53,10.53,0,0,1,3.93-.28,5.69,5.69,0,0,1,3.24,1.21A3.68,3.68,0,0,1,493.6,76a3.41,3.41,0,0,1,.34,1.35,7,7,0,0,1-1.46,4.91,13.41,13.41,0,0,1-3.61,3.29,16.42,16.42,0,0,1-2.37,1.2,24.64,24.64,0,0,1-2.75.93,26,26,0,0,1-5.88.92,15.56,15.56,0,0,1,.78-7.18Z"/><path class="cls-2" d="M172,89.26v6.82a9.72,9.72,0,0,0,1.7,5.53,12.61,12.61,0,0,0,3.44,3.43,16.71,16.71,0,0,0,4.86,2.27,20.69,20.69,0,0,0,5.63.78l14.69,0a21,21,0,0,0,4.7-.5,17.29,17.29,0,0,0,4.25-1.6,13.88,13.88,0,0,0,3.36-2.52,9.47,9.47,0,0,0,2.79-6.71l.07-54a1.59,1.59,0,0,1,.19-.76,2,2,0,0,1,.56-.65,3.12,3.12,0,0,1,1.85-.6l2.52-.15a1.56,1.56,0,0,0,1.26-.75h0a.85.85,0,0,0,.08-.42V37.06l-24,0,0,59.05a4,4,0,0,1-.25,1.43,4.62,4.62,0,0,1-.79,1.3,5.86,5.86,0,0,1-1.28,1.08,9.36,9.36,0,0,1-4,1.19,13.77,13.77,0,0,1-8-1.1,4.64,4.64,0,0,1-1.17-.91,3.31,3.31,0,0,1-.93-2.4l0-12.46,6.4-3.83a4.14,4.14,0,0,0,1.83-3.22l0-11H172.12l-.05,17"/><path class="cls-2" d="M377.29,85l0-6.83a9.82,9.82,0,0,0-1.67-5.55,12.79,12.79,0,0,0-3.4-3.45,17.07,17.07,0,0,0-4.83-2.28,20,20,0,0,0-5.59-.8l-14.62,0a20.83,20.83,0,0,0-4.68.49,17.26,17.26,0,0,0-4.23,1.58,13.85,13.85,0,0,0-3.35,2.51,9.47,9.47,0,0,0-2.82,6.71l-.32,54.09a1.59,1.59,0,0,1-.19.76,2,2,0,0,1-.56.65,3.12,3.12,0,0,1-1.85.6l-2.51.14a1.53,1.53,0,0,0-1.25.74h0a.79.79,0,0,0-.08.42l0,2.28,23.92.06.32-59.1a4.14,4.14,0,0,1,.25-1.43,4.44,4.44,0,0,1,.8-1.3,5.43,5.43,0,0,1,1.28-1.08,9.29,9.29,0,0,1,4-1.17,13.67,13.67,0,0,1,7.92,1.13,5,5,0,0,1,1.15.92,3.34,3.34,0,0,1,.92,2.4l-.08,12.47-6.38,3.81A4.12,4.12,0,0,0,357.56,97l0,11.06,19.5.06.12-17"/><path class="cls-2" d="M283.14,120.42a44.08,44.08,0,0,0,26.38-8.11,36.62,36.62,0,0,0,7.22-6.87,31.84,31.84,0,0,0,4.86-8.72,31.06,31.06,0,0,0,.63-19.37,29.66,29.66,0,0,0-4.17-8.55,32,32,0,0,0-6.65-6.9,33.84,33.84,0,0,0-8.53-4.73L275.16,45.82a10.8,10.8,0,0,1-4.61-3.59c-2.95-4.59-2.54-9.12,1.66-12.82a21.14,21.14,0,0,1,2-1.25c6.09-3.24,11.5-3,18-2.09a54.24,54.24,0,0,1,7.93,1.86,32.59,32.59,0,0,1,13.22,7l15.83-32.9L266.4,2c-6.64.09-13.7,1.44-19.64,5.13a28.79,28.79,0,0,0-6.29,5.27A29.82,29.82,0,0,0,236,19.11a32.56,32.56,0,0,0-3.26,15.2c.23,4.57.87,9.08,4.09,13.41a34.15,34.15,0,0,0,6.7,6.35,56.29,56.29,0,0,0,10.35,6.24l21.42,11a11.09,11.09,0,0,1,4.2,3.34,9.89,9.89,0,0,1,1.34,2.28c2.14,5.47,2.33,11.13-1.07,16a14.81,14.81,0,0,1-3.3,3.36c-7.88,5.09-15.57,5.1-23,3.63a33.07,33.07,0,0,1-14-6.84,27.94,27.94,0,0,1-8.46-12.31c-1.12-3.32-2.53-3.14-3.07.3-.69,4.44,2.75,15.07,2.75,20.3,0,.86-5.9,18.64-6.73,19C219.7,121.85,283.14,120.42,283.14,120.42Z"/><path class="cls-2" d="M139.15,40.14a2,2,0,0,0,1.68,1h2.37a2.26,2.26,0,0,1,1.73.71,1.42,1.42,0,0,1,.39,1l0,52.35a10.93,10.93,0,0,0,.78,4.09,12.24,12.24,0,0,0,2.32,3.69,15.17,15.17,0,0,0,3.63,2.92,18,18,0,0,0,4.58,1.86c1.63.42,9.66.34,11.38.34,0,0,.32-6.55,0-6.42a5.18,5.18,0,0,1-4.88-.83,3.71,3.71,0,0,1-.77-.87,5.66,5.66,0,0,1-.61-3V37.51l-22.75,0v2.08a1.17,1.17,0,0,0,.12.58Z"/><path class="cls-2" d="M128.53,37.05a66.29,66.29,0,0,0-4.81-9.86,83.7,83.7,0,0,0-6.79-9.76,88.94,88.94,0,0,0-6-6.69L120,.05,33.77,0A96.77,96.77,0,0,0,24.1,8a91.16,91.16,0,0,0-8.35,9.05A83.87,83.87,0,0,0,9,26.84,66.29,66.29,0,0,0,4.16,36.7,58.9,58.9,0,0,0,.84,68.17a54.31,54.31,0,0,0,1.21,5.31A52.07,52.07,0,0,0,6.94,84.9a56.75,56.75,0,0,0,7.62,10.28A60.88,60.88,0,0,0,20,100.35c.85,1,5.78,6.78,10,9.08a69.16,69.16,0,0,0,14.87,6A73.7,73.7,0,0,0,61.06,118a75.25,75.25,0,0,0,14.07-.61,73.91,73.91,0,0,0,12.68-2.3C93,113.64,95.93,112,101,108.79c.19-.12.39-.27.59-.42.58-.33,1.17-.66,1.74-1q2.46-1.48,4.79-3.15a63.35,63.35,0,0,0,10-8.68,57.1,57.1,0,0,0,7.62-10.28,52.32,52.32,0,0,0,4.9-11.42q.74-2.64,1.21-5.31A59,59,0,0,0,128.53,37.05ZM20.35,59a31.33,31.33,0,0,1,1.91-6.86,33.55,33.55,0,0,1,3.49-6.43A39.7,39.7,0,0,1,30.66,40a43.16,43.16,0,0,1,5.89-4.78,52.6,52.6,0,0,1,6.82-3.91,53.34,53.34,0,0,1,7.59-3l1.38-.39c1.34-.34,2.73-.63,4.23-.86a60.16,60.16,0,0,1,8.18-.71,54.88,54.88,0,0,1,16.57,2.3,54.11,54.11,0,0,1,7.59,3,51.42,51.42,0,0,1,6.82,3.9,43.23,43.23,0,0,1,5.89,4.79,39.09,39.09,0,0,1,4.91,5.79A32.48,32.48,0,0,1,110,52.53a31.76,31.76,0,0,1,1.92,6.86,35.33,35.33,0,0,1,.43,7.29A36.62,36.62,0,0,1,111.31,74,37.59,37.59,0,0,1,104,88.49a47.36,47.36,0,0,1-6.48,6.59,54.91,54.91,0,0,1-8.15,5.62,68.72,68.72,0,0,1-10,4.62c-2.43.91-23,1-26.53-.34a68.79,68.79,0,0,1-10-4.62,55.06,55.06,0,0,1-8.16-5.63,46.2,46.2,0,0,1-6.47-6.59A37.53,37.53,0,0,1,21,73.66,35.9,35.9,0,0,1,20.35,59Z"/><path class="cls-2" d="M460,66.68,449.94,79.19s-12.21-10-21.09,5,10,21,10,21,7.77,3,13.32,0,6.66-4,6.66-3-4.44,4-6.38,4.82c-.31.14-.07.08-.28.18-2.22,1-19.67,6.12-28.86-4-10-11-3.82-23.8-3.82-23.8s5.13-9.71,10-12.46Z"/></svg>